<svg xmlns="http://www.w3.org/2000/svg" xmlns:xlink="http://www.w3.org/1999/xlink" width="300" zoomAndPan="magnify" viewBox="0 0 224.87999 97.5" height="130" preserveAspectRatio="xMidYMid meet" version="1.0"><defs><g/><clipPath id="e381039fd4"><path d="M 30.515625 27 L 194.335938 27 L 194.335938 29 L 30.515625 29 Z M 30.515625 27 " clip-rule="nonzero"/></clipPath><clipPath id="581ee9c7cd"><path d="M 30.515625 27 L 70 27 L 70 29 L 30.515625 29 Z M 30.515625 27 " clip-rule="nonzero"/></clipPath><clipPath id="06fea1402f"><path d="M 66 25.566406 L 72 25.566406 L 72 31 L 66 31 Z M 66 25.566406 " clip-rule="nonzero"/></clipPath><clipPath id="cc46295103"><path d="M 109 57 L 121 57 L 121 71.222656 L 109 71.222656 Z M 109 57 " clip-rule="nonzero"/></clipPath><clipPath id="a14e1b8a6e"><path d="M 178 59 L 189.480469 59 L 189.480469 68 L 178 68 Z M 178 59 " clip-rule="nonzero"/></clipPath><clipPath id="ddf67c0e63"><path d="M 183 64 L 189.480469 64 L 189.480469 70 L 183 70 Z M 183 64 " clip-rule="nonzero"/></clipPath></defs><g clip-path="url(#e381039fd4)"><path fill="#ffffff" d="M 30.605469 27.511719 L 194.226562 27.511719 L 194.226562 28.804688 L 30.605469 28.804688 Z M 30.605469 27.511719 " fill-opacity="1" fill-rule="nonzero"/></g><g clip-path="url(#581ee9c7cd)"><path fill="#1bbc9b" d="M 30.605469 27.5 L 69.265625 27.5 L 69.265625 28.820312 L 30.605469 28.820312 Z M 30.605469 27.5 " fill-opacity="1" fill-rule="nonzero"/></g><g clip-path="url(#06fea1402f)"><path fill="#1bbc9b" d="M 71.835938 28.15625 C 71.835938 28.5 71.769531 28.828125 71.640625 29.140625 C 71.507812 29.457031 71.324219 29.734375 71.082031 29.976562 C 70.84375 30.214844 70.5625 30.402344 70.25 30.53125 C 69.933594 30.664062 69.605469 30.726562 69.265625 30.726562 C 68.925781 30.726562 68.597656 30.664062 68.28125 30.53125 C 67.96875 30.402344 67.691406 30.214844 67.449219 29.976562 C 67.207031 29.734375 67.023438 29.457031 66.890625 29.140625 C 66.761719 28.828125 66.695312 28.5 66.695312 28.15625 C 66.695312 27.816406 66.761719 27.488281 66.890625 27.175781 C 67.023438 26.859375 67.207031 26.582031 67.449219 26.339844 C 67.691406 26.101562 67.96875 25.914062 68.28125 25.785156 C 68.597656 25.652344 68.925781 25.589844 69.265625 25.589844 C 69.605469 25.589844 69.933594 25.652344 70.25 25.785156 C 70.5625 25.914062 70.84375 26.101562 71.082031 26.339844 C 71.324219 26.582031 71.507812 26.859375 71.640625 27.175781 C 71.769531 27.488281 71.835938 27.816406 71.835938 28.15625 Z M 71.835938 28.15625 " fill-opacity="1" fill-rule="nonzero"/></g><g clip-path="url(#cc46295103)"><path fill="#ffffff" d="M 109.304688 58.839844 L 109.304688 69.71875 C 109.304688 70.792969 110.484375 71.441406 111.390625 70.875 L 120.046875 65.433594 C 120.898438 64.898438 120.898438 63.660156 120.046875 63.125 L 111.390625 57.683594 C 110.488281 57.117188 109.304688 57.769531 109.304688 58.839844 Z M 109.304688 58.839844 " fill-opacity="1" fill-rule="nonzero"/></g><path fill="#ffffff" d="M 156.746094 58.191406 C 156.515625 58.289062 156.382812 58.535156 156.382812 58.78125 L 156.382812 63.554688 L 149.683594 59.347656 C 148.777344 58.777344 147.597656 59.425781 147.597656 60.5 L 147.597656 68.0625 C 147.597656 69.132812 148.777344 69.785156 149.683594 69.214844 L 156.382812 65.003906 L 156.382812 69.78125 C 156.382812 70.03125 156.515625 70.277344 156.746094 70.371094 C 157.207031 70.558594 157.648438 70.226562 157.648438 69.792969 L 157.648438 58.765625 C 157.648438 58.332031 157.207031 58.003906 156.746094 58.191406 Z M 156.746094 58.191406 " fill-opacity="1" fill-rule="nonzero"/><path fill="#ffffff" d="M 73.730469 70.371094 C 73.960938 70.273438 74.09375 70.027344 74.09375 69.78125 L 74.09375 65.003906 L 80.796875 69.214844 C 81.703125 69.785156 82.882812 69.132812 82.882812 68.0625 L 82.882812 60.5 C 82.882812 59.425781 81.703125 58.777344 80.796875 59.347656 L 74.09375 63.554688 L 74.09375 58.78125 C 74.09375 58.53125 73.960938 58.285156 73.730469 58.191406 C 73.273438 58.003906 72.832031 58.332031 72.832031 58.769531 L 72.832031 69.796875 C 72.835938 70.226562 73.277344 70.558594 73.730469 70.371094 Z M 73.730469 70.371094 " fill-opacity="1" fill-rule="nonzero"/><g clip-path="url(#a14e1b8a6e)"><path fill="#ffffff" d="M 179.335938 67.984375 C 179.097656 67.984375 178.9375 67.964844 178.917969 67.964844 C 178.65625 67.929688 178.472656 67.6875 178.507812 67.425781 C 178.539062 67.164062 178.78125 66.980469 179.042969 67.011719 C 179.058594 67.011719 180.480469 67.175781 181.238281 66.300781 C 181.488281 66.011719 181.835938 65.542969 182.238281 65 C 183.34375 63.503906 184.71875 61.640625 185.792969 61.21875 C 186.445312 60.964844 187.148438 60.933594 187.734375 60.976562 L 186.972656 59.996094 C 186.902344 59.90625 186.871094 59.804688 186.871094 59.703125 C 186.871094 59.558594 186.933594 59.417969 187.054688 59.320312 C 187.265625 59.160156 187.566406 59.195312 187.730469 59.40625 L 189.261719 61.371094 C 189.328125 61.460938 189.359375 61.570312 189.359375 61.679688 C 189.359375 61.714844 189.355469 61.746094 189.34375 61.785156 C 189.324219 61.855469 189.292969 61.925781 189.238281 61.984375 C 189.230469 62 189.21875 62.007812 189.207031 62.019531 L 187.535156 63.617188 C 187.347656 63.796875 187.039062 63.792969 186.859375 63.601562 C 186.675781 63.410156 186.679688 63.105469 186.875 62.921875 L 187.882812 61.957031 C 187.375 61.898438 186.71875 61.894531 186.144531 62.113281 C 185.328125 62.433594 183.933594 64.324219 183.011719 65.570312 C 182.601562 66.128906 182.246094 66.613281 181.964844 66.929688 C 181.167969 67.851562 179.964844 67.984375 179.335938 67.984375 Z M 179.335938 67.984375 " fill-opacity="1" fill-rule="nonzero"/></g><g clip-path="url(#ddf67c0e63)"><path fill="#ffffff" d="M 187.285156 69.339844 C 187.179688 69.339844 187.082031 69.308594 186.992188 69.238281 C 186.871094 69.144531 186.804688 69.003906 186.804688 68.859375 C 186.804688 68.753906 186.839844 68.652344 186.90625 68.566406 L 187.667969 67.585938 C 187.085938 67.628906 186.382812 67.597656 185.726562 67.34375 C 185.25 67.15625 184.707031 66.703125 184.015625 65.917969 C 183.84375 65.71875 183.859375 65.417969 184.0625 65.238281 C 184.257812 65.066406 184.5625 65.082031 184.738281 65.285156 C 185.449219 66.089844 185.863281 66.363281 186.078125 66.445312 C 186.65625 66.667969 187.308594 66.664062 187.820312 66.605469 L 186.808594 65.640625 C 186.621094 65.457031 186.613281 65.152344 186.792969 64.960938 C 186.976562 64.769531 187.28125 64.761719 187.472656 64.945312 L 189.148438 66.546875 C 189.324219 66.714844 189.34375 66.992188 189.195312 67.183594 L 187.664062 69.152344 C 187.570312 69.28125 187.425781 69.339844 187.285156 69.339844 Z M 187.285156 69.339844 " fill-opacity="1" fill-rule="nonzero"/></g><path fill="#ffffff" d="M 182.273438 63.472656 C 182.128906 63.472656 181.984375 63.402344 181.886719 63.277344 C 181.691406 63.015625 181.570312 62.824219 181.472656 62.675781 C 181.363281 62.511719 181.296875 62.402344 181.175781 62.261719 C 180.410156 61.371094 178.996094 61.546875 178.980469 61.550781 C 178.71875 61.582031 178.476562 61.402344 178.441406 61.136719 C 178.40625 60.875 178.59375 60.632812 178.855469 60.601562 C 178.929688 60.59375 180.796875 60.363281 181.898438 61.636719 C 182.0625 61.824219 182.160156 61.976562 182.277344 62.15625 C 182.375 62.300781 182.480469 62.464844 182.65625 62.707031 C 182.8125 62.921875 182.769531 63.222656 182.554688 63.378906 C 182.472656 63.441406 182.371094 63.472656 182.273438 63.472656 Z M 182.273438 63.472656 " fill-opacity="1" fill-rule="nonzero"/><path fill="#ffffff" d="M 49.03125 64.5625 C 49 64.304688 48.777344 64.109375 48.515625 64.136719 C 48.261719 64.160156 48.078125 64.390625 48.101562 64.644531 C 48.222656 65.804688 47.84375 67.007812 46.957031 67.890625 C 45.398438 69.449219 42.863281 69.449219 41.304688 67.890625 L 40.949219 67.5 L 42.148438 67.5 C 42.398438 67.5 42.605469 67.296875 42.605469 67.042969 C 42.605469 66.792969 42.402344 66.585938 42.148438 66.585938 L 39.953125 66.585938 C 39.804688 66.546875 39.632812 66.585938 39.515625 66.703125 C 39.511719 66.707031 39.511719 66.707031 39.507812 66.710938 C 39.503906 66.714844 39.503906 66.714844 39.5 66.71875 C 39.417969 66.800781 39.367188 66.917969 39.367188 67.042969 L 39.367188 69.3125 C 39.367188 69.5625 39.570312 69.769531 39.824219 69.769531 C 40.074219 69.769531 40.277344 69.566406 40.277344 69.3125 L 40.277344 68.125 L 40.652344 68.550781 C 42.617188 70.515625 45.847656 70.46875 47.753906 68.40625 C 48.742188 67.34375 49.171875 65.925781 49.03125 64.5625 Z M 49.03125 64.5625 " fill-opacity="1" fill-rule="nonzero"/><path fill="#ffffff" d="M 40.085938 65.484375 C 40.011719 64.378906 40.398438 63.246094 41.242188 62.402344 C 42.800781 60.84375 45.335938 60.84375 46.894531 62.402344 L 47.25 62.792969 L 46.050781 62.792969 C 45.800781 62.792969 45.59375 62.996094 45.59375 63.25 C 45.59375 63.5 45.796875 63.707031 46.050781 63.707031 L 48.246094 63.707031 C 48.394531 63.746094 48.566406 63.707031 48.683594 63.589844 C 48.6875 63.585938 48.6875 63.585938 48.691406 63.582031 C 48.695312 63.578125 48.695312 63.578125 48.699219 63.574219 C 48.78125 63.492188 48.832031 63.375 48.832031 63.25 L 48.832031 60.980469 C 48.832031 60.730469 48.628906 60.523438 48.375 60.523438 C 48.125 60.523438 47.921875 60.726562 47.921875 60.980469 L 47.921875 62.167969 L 47.546875 61.742188 C 45.582031 59.777344 42.351562 59.824219 40.445312 61.886719 C 39.5 62.90625 39.066406 64.234375 39.148438 65.539062 C 39.164062 65.804688 39.398438 66.007812 39.664062 65.976562 C 39.921875 65.949219 40.101562 65.734375 40.085938 65.484375 Z M 40.085938 65.484375 " fill-opacity="1" fill-rule="nonzero"/><g fill="#ffffff" fill-opacity="1"><g transform="translate(38.694012, 50.219147)"><g><path d="M 0.3125 -0.578125 C 0.3125 -0.804688 0.359375 -0.976562 0.453125 -1.09375 C 0.554688 -1.207031 0.679688 -1.347656 0.828125 -1.515625 C 0.972656 -1.691406 1.097656 -1.960938 1.203125 -2.328125 C 1.304688 -2.703125 1.359375 -3.25 1.359375 -3.96875 L 1.359375 -7.671875 C 1.378906 -8.515625 1.390625 -9.300781 1.390625 -10.03125 C 1.390625 -10.757812 1.390625 -11.222656 1.390625 -11.421875 C 1.390625 -12.140625 1.335938 -12.679688 1.234375 -13.046875 C 1.128906 -13.421875 1.003906 -13.695312 0.859375 -13.875 C 0.710938 -14.050781 0.585938 -14.191406 0.484375 -14.296875 C 0.390625 -14.410156 0.34375 -14.582031 0.34375 -14.8125 C 0.34375 -15.125 0.457031 -15.328125 0.6875 -15.421875 C 0.925781 -15.523438 1.222656 -15.578125 1.578125 -15.578125 C 1.941406 -15.578125 2.332031 -15.546875 2.75 -15.484375 C 3.175781 -15.421875 3.539062 -15.390625 3.84375 -15.390625 L 4.1875 -15.390625 C 4.90625 -15.390625 5.617188 -15.421875 6.328125 -15.484375 C 7.035156 -15.546875 7.738281 -15.578125 8.4375 -15.578125 C 9.539062 -15.578125 10.53125 -15.367188 11.40625 -14.953125 C 12.28125 -14.546875 12.972656 -13.976562 13.484375 -13.25 C 14.003906 -12.53125 14.265625 -11.664062 14.265625 -10.65625 C 14.265625 -9.8125 14.078125 -9.003906 13.703125 -8.234375 C 13.335938 -7.460938 12.769531 -6.835938 12 -6.359375 C 11.226562 -5.878906 10.238281 -5.640625 9.03125 -5.640625 C 8.207031 -5.640625 7.515625 -5.757812 6.953125 -6 C 6.523438 -6.1875 6.3125 -6.078125 6.3125 -5.671875 L 6.3125 -3.96875 C 6.3125 -3.25 6.363281 -2.703125 6.46875 -2.328125 C 6.570312 -1.960938 6.691406 -1.691406 6.828125 -1.515625 C 6.972656 -1.347656 7.097656 -1.207031 7.203125 -1.09375 C 7.304688 -0.976562 7.359375 -0.804688 7.359375 -0.578125 C 7.359375 -0.273438 7.238281 -0.0703125 7 0.03125 C 6.769531 0.132812 6.476562 0.1875 6.125 0.1875 C 5.738281 0.1875 5.332031 0.15625 4.90625 0.09375 C 4.488281 0.03125 4.125 0 3.8125 0 C 3.507812 0 3.144531 0.03125 2.71875 0.09375 C 2.300781 0.15625 1.910156 0.1875 1.546875 0.1875 C 1.191406 0.1875 0.894531 0.132812 0.65625 0.03125 C 0.425781 -0.0703125 0.3125 -0.273438 0.3125 -0.578125 Z M 6.34375 -8.46875 C 6.34375 -8.019531 6.597656 -7.796875 7.109375 -7.796875 C 7.703125 -7.796875 8.140625 -8.09375 8.421875 -8.6875 C 8.703125 -9.28125 8.84375 -10 8.84375 -10.84375 C 8.84375 -11.78125 8.71875 -12.523438 8.46875 -13.078125 C 8.21875 -13.640625 7.765625 -13.921875 7.109375 -13.921875 C 6.910156 -13.921875 6.734375 -13.863281 6.578125 -13.75 C 6.421875 -13.632812 6.34375 -13.457031 6.34375 -13.21875 Z M 6.34375 -8.46875 "/></g></g></g><g fill="#ffffff" fill-opacity="1"><g transform="translate(53.568645, 50.219147)"><g><path d="M 4 0.1875 C 2.851562 0.1875 2 -0.148438 1.4375 -0.828125 C 0.882812 -1.503906 0.609375 -2.316406 0.609375 -3.265625 C 0.609375 -4.640625 1.125 -5.722656 2.15625 -6.515625 C 3.1875 -7.304688 4.519531 -7.875 6.15625 -8.21875 C 7.71875 -8.550781 8.5 -9.066406 8.5 -9.765625 C 8.5 -10.023438 8.382812 -10.285156 8.15625 -10.546875 C 7.9375 -10.804688 7.546875 -10.9375 6.984375 -10.9375 C 6.429688 -10.9375 5.976562 -10.785156 5.625 -10.484375 C 5.28125 -10.191406 4.972656 -9.851562 4.703125 -9.46875 C 4.441406 -9.09375 4.148438 -8.753906 3.828125 -8.453125 C 3.515625 -8.148438 3.09375 -8 2.5625 -8 C 2.207031 -8 1.898438 -8.125 1.640625 -8.375 C 1.390625 -8.625 1.265625 -8.921875 1.265625 -9.265625 C 1.265625 -9.960938 1.539062 -10.550781 2.09375 -11.03125 C 2.644531 -11.519531 3.367188 -11.882812 4.265625 -12.125 C 5.160156 -12.375 6.128906 -12.5 7.171875 -12.5 C 8.304688 -12.5 9.332031 -12.316406 10.25 -11.953125 C 11.175781 -11.597656 11.914062 -11 12.46875 -10.15625 C 13.019531 -9.320312 13.296875 -8.175781 13.296875 -6.71875 L 13.296875 -3.96875 C 13.296875 -3.25 13.347656 -2.703125 13.453125 -2.328125 C 13.554688 -1.960938 13.679688 -1.691406 13.828125 -1.515625 C 13.972656 -1.347656 14.09375 -1.207031 14.1875 -1.09375 C 14.289062 -0.976562 14.34375 -0.804688 14.34375 -0.578125 C 14.34375 -0.273438 14.25 -0.0703125 14.0625 0.03125 C 13.882812 0.132812 13.648438 0.1875 13.359375 0.1875 C 13.054688 0.1875 12.71875 0.15625 12.34375 0.09375 C 11.976562 0.03125 11.640625 0 11.328125 0 C 11.003906 0 10.71875 0.015625 10.46875 0.046875 C 10.21875 0.078125 9.960938 0.113281 9.703125 0.15625 C 9.367188 0.195312 9.070312 0.15625 8.8125 0.03125 C 8.5625 -0.09375 8.414062 -0.316406 8.375 -0.640625 C 8.351562 -0.972656 8.300781 -1.195312 8.21875 -1.3125 C 8.132812 -1.425781 8.035156 -1.484375 7.921875 -1.484375 C 7.691406 -1.484375 7.394531 -1.34375 7.03125 -1.0625 C 6.675781 -0.78125 6.242188 -0.5 5.734375 -0.21875 C 5.234375 0.0507812 4.65625 0.1875 4 0.1875 Z M 5.390625 -4.53125 C 5.390625 -3.9375 5.535156 -3.507812 5.828125 -3.25 C 6.128906 -2.988281 6.488281 -2.859375 6.90625 -2.859375 C 7.414062 -2.859375 7.800781 -3.078125 8.0625 -3.515625 C 8.332031 -3.960938 8.46875 -4.484375 8.46875 -5.078125 L 8.46875 -6.5625 C 8.46875 -7.113281 8.210938 -7.253906 7.703125 -6.984375 C 7.367188 -6.828125 7.019531 -6.648438 6.65625 -6.453125 C 6.300781 -6.253906 6 -6.007812 5.75 -5.71875 C 5.507812 -5.4375 5.390625 -5.039062 5.390625 -4.53125 Z M 5.390625 -4.53125 "/></g></g></g><g fill="#ffffff" fill-opacity="1"><g transform="translate(68.227701, 50.219147)"><g><path d="M 0.609375 -2.953125 C 0.609375 -3.367188 0.726562 -3.695312 0.96875 -3.9375 C 1.207031 -4.1875 1.550781 -4.3125 2 -4.3125 C 2.394531 -4.3125 2.710938 -4.164062 2.953125 -3.875 C 3.203125 -3.59375 3.457031 -3.265625 3.71875 -2.890625 C 3.988281 -2.523438 4.328125 -2.195312 4.734375 -1.90625 C 5.148438 -1.625 5.707031 -1.484375 6.40625 -1.484375 C 6.9375 -1.484375 7.351562 -1.535156 7.65625 -1.640625 C 7.96875 -1.753906 8.125 -2.019531 8.125 -2.4375 C 8.125 -2.757812 7.941406 -3.023438 7.578125 -3.234375 C 7.222656 -3.441406 6.769531 -3.628906 6.21875 -3.796875 C 5.664062 -3.972656 5.078125 -4.171875 4.453125 -4.390625 C 3.828125 -4.609375 3.234375 -4.878906 2.671875 -5.203125 C 2.117188 -5.535156 1.660156 -5.960938 1.296875 -6.484375 C 0.941406 -7.003906 0.765625 -7.664062 0.765625 -8.46875 C 0.765625 -9.375 0.96875 -10.097656 1.375 -10.640625 C 1.789062 -11.179688 2.304688 -11.582031 2.921875 -11.84375 C 3.535156 -12.113281 4.144531 -12.289062 4.75 -12.375 C 5.363281 -12.457031 5.863281 -12.5 6.25 -12.5 C 7.300781 -12.5 8.273438 -12.375 9.171875 -12.125 C 10.078125 -11.882812 10.804688 -11.519531 11.359375 -11.03125 C 11.921875 -10.550781 12.203125 -9.960938 12.203125 -9.265625 C 12.203125 -8.921875 12.070312 -8.625 11.8125 -8.375 C 11.550781 -8.125 11.25 -8 10.90625 -8 C 10.363281 -8 9.925781 -8.148438 9.59375 -8.453125 C 9.269531 -8.753906 8.972656 -9.09375 8.703125 -9.46875 C 8.441406 -9.851562 8.132812 -10.191406 7.78125 -10.484375 C 7.4375 -10.785156 6.988281 -10.9375 6.4375 -10.9375 C 5.882812 -10.9375 5.519531 -10.804688 5.34375 -10.546875 C 5.164062 -10.285156 5.078125 -10.023438 5.078125 -9.765625 C 5.078125 -9.367188 5.25 -9.066406 5.59375 -8.859375 C 5.945312 -8.660156 6.398438 -8.492188 6.953125 -8.359375 C 7.515625 -8.222656 8.101562 -8.070312 8.71875 -7.90625 C 9.332031 -7.75 9.914062 -7.53125 10.46875 -7.25 C 11.019531 -6.976562 11.46875 -6.585938 11.8125 -6.078125 C 12.164062 -5.578125 12.34375 -4.914062 12.34375 -4.09375 C 12.34375 -3.050781 12.039062 -2.210938 11.4375 -1.578125 C 10.832031 -0.953125 10.054688 -0.5 9.109375 -0.21875 C 8.171875 0.0507812 7.175781 0.1875 6.125 0.1875 C 5.695312 0.1875 5.175781 0.132812 4.5625 0.03125 C 3.945312 -0.0703125 3.332031 -0.238281 2.71875 -0.46875 C 2.113281 -0.707031 1.609375 -1.023438 1.203125 -1.421875 C 0.804688 -1.828125 0.609375 -2.335938 0.609375 -2.953125 Z M 0.609375 -2.953125 "/></g></g></g><g fill="#ffffff" fill-opacity="1"><g transform="translate(81.192958, 50.219147)"><g><path d="M 0.609375 -2.953125 C 0.609375 -3.367188 0.726562 -3.695312 0.96875 -3.9375 C 1.207031 -4.1875 1.550781 -4.3125 2 -4.3125 C 2.394531 -4.3125 2.710938 -4.164062 2.953125 -3.875 C 3.203125 -3.59375 3.457031 -3.265625 3.71875 -2.890625 C 3.988281 -2.523438 4.328125 -2.195312 4.734375 -1.90625 C 5.148438 -1.625 5.707031 -1.484375 6.40625 -1.484375 C 6.9375 -1.484375 7.351562 -1.535156 7.65625 -1.640625 C 7.96875 -1.753906 8.125 -2.019531 8.125 -2.4375 C 8.125 -2.757812 7.941406 -3.023438 7.578125 -3.234375 C 7.222656 -3.441406 6.769531 -3.628906 6.21875 -3.796875 C 5.664062 -3.972656 5.078125 -4.171875 4.453125 -4.390625 C 3.828125 -4.609375 3.234375 -4.878906 2.671875 -5.203125 C 2.117188 -5.535156 1.660156 -5.960938 1.296875 -6.484375 C 0.941406 -7.003906 0.765625 -7.664062 0.765625 -8.46875 C 0.765625 -9.375 0.96875 -10.097656 1.375 -10.640625 C 1.789062 -11.179688 2.304688 -11.582031 2.921875 -11.84375 C 3.535156 -12.113281 4.144531 -12.289062 4.75 -12.375 C 5.363281 -12.457031 5.863281 -12.5 6.25 -12.5 C 7.300781 -12.5 8.273438 -12.375 9.171875 -12.125 C 10.078125 -11.882812 10.804688 -11.519531 11.359375 -11.03125 C 11.921875 -10.550781 12.203125 -9.960938 12.203125 -9.265625 C 12.203125 -8.921875 12.070312 -8.625 11.8125 -8.375 C 11.550781 -8.125 11.25 -8 10.90625 -8 C 10.363281 -8 9.925781 -8.148438 9.59375 -8.453125 C 9.269531 -8.753906 8.972656 -9.09375 8.703125 -9.46875 C 8.441406 -9.851562 8.132812 -10.191406 7.78125 -10.484375 C 7.4375 -10.785156 6.988281 -10.9375 6.4375 -10.9375 C 5.882812 -10.9375 5.519531 -10.804688 5.34375 -10.546875 C 5.164062 -10.285156 5.078125 -10.023438 5.078125 -9.765625 C 5.078125 -9.367188 5.25 -9.066406 5.59375 -8.859375 C 5.945312 -8.660156 6.398438 -8.492188 6.953125 -8.359375 C 7.515625 -8.222656 8.101562 -8.070312 8.71875 -7.90625 C 9.332031 -7.75 9.914062 -7.53125 10.46875 -7.25 C 11.019531 -6.976562 11.46875 -6.585938 11.8125 -6.078125 C 12.164062 -5.578125 12.34375 -4.914062 12.34375 -4.09375 C 12.34375 -3.050781 12.039062 -2.210938 11.4375 -1.578125 C 10.832031 -0.953125 10.054688 -0.5 9.109375 -0.21875 C 8.171875 0.0507812 7.175781 0.1875 6.125 0.1875 C 5.695312 0.1875 5.175781 0.132812 4.5625 0.03125 C 3.945312 -0.0703125 3.332031 -0.238281 2.71875 -0.46875 C 2.113281 -0.707031 1.609375 -1.023438 1.203125 -1.421875 C 0.804688 -1.828125 0.609375 -2.335938 0.609375 -2.953125 Z M 0.609375 -2.953125 "/></g></g></g><g fill="#1bbc9b" fill-opacity="1"><g transform="translate(94.159418, 50.219147)"><g><path d="M 0.984375 -9.796875 C 0.554688 -9.796875 0.3125 -10.050781 0.25 -10.5625 C 0.1875 -11.070312 0.15625 -11.726562 0.15625 -12.53125 L 0.15625 -14.171875 C 0.15625 -14.535156 0.257812 -14.859375 0.46875 -15.140625 C 0.6875 -15.429688 0.984375 -15.578125 1.359375 -15.578125 C 2.179688 -15.578125 3.039062 -15.546875 3.9375 -15.484375 C 4.84375 -15.421875 6.046875 -15.390625 7.546875 -15.390625 C 9.023438 -15.390625 10.207031 -15.421875 11.09375 -15.484375 C 11.988281 -15.546875 12.847656 -15.578125 13.671875 -15.578125 C 14.046875 -15.578125 14.320312 -15.429688 14.5 -15.140625 C 14.6875 -14.859375 14.78125 -14.535156 14.78125 -14.171875 L 14.78125 -12.90625 C 14.78125 -12.375 14.773438 -11.867188 14.765625 -11.390625 C 14.753906 -10.921875 14.691406 -10.535156 14.578125 -10.234375 C 14.460938 -9.941406 14.253906 -9.796875 13.953125 -9.796875 C 13.554688 -9.796875 13.21875 -9.992188 12.9375 -10.390625 C 12.664062 -10.796875 12.414062 -11.253906 12.1875 -11.765625 C 11.96875 -12.273438 11.738281 -12.726562 11.5 -13.125 C 11.257812 -13.53125 10.96875 -13.734375 10.625 -13.734375 C 10.175781 -13.734375 9.953125 -13.5 9.953125 -13.03125 L 9.953125 -3.96875 C 9.953125 -3.25 10 -2.703125 10.09375 -2.328125 C 10.195312 -1.960938 10.320312 -1.691406 10.46875 -1.515625 C 10.613281 -1.347656 10.738281 -1.207031 10.84375 -1.09375 C 10.945312 -0.976562 11 -0.804688 11 -0.578125 C 11 -0.273438 10.878906 -0.0703125 10.640625 0.03125 C 10.398438 0.132812 10.109375 0.1875 9.765625 0.1875 C 9.367188 0.1875 8.960938 0.15625 8.546875 0.09375 C 8.128906 0.03125 7.765625 0 7.453125 0 C 7.140625 0 6.773438 0.03125 6.359375 0.09375 C 5.941406 0.15625 5.546875 0.1875 5.171875 0.1875 C 4.828125 0.1875 4.535156 0.132812 4.296875 0.03125 C 4.054688 -0.0703125 3.9375 -0.273438 3.9375 -0.578125 C 3.9375 -0.804688 3.988281 -0.976562 4.09375 -1.09375 C 4.195312 -1.207031 4.320312 -1.347656 4.46875 -1.515625 C 4.613281 -1.691406 4.734375 -1.960938 4.828125 -2.328125 C 4.929688 -2.703125 4.984375 -3.25 4.984375 -3.96875 L 4.984375 -13.03125 C 4.984375 -13.5 4.757812 -13.734375 4.3125 -13.734375 C 3.976562 -13.734375 3.6875 -13.53125 3.4375 -13.125 C 3.195312 -12.726562 2.960938 -12.273438 2.734375 -11.765625 C 2.515625 -11.253906 2.265625 -10.796875 1.984375 -10.390625 C 1.710938 -9.992188 1.378906 -9.796875 0.984375 -9.796875 Z M 0.984375 -9.796875 "/></g></g></g><g fill="#1bbc9b" fill-opacity="1"><g transform="translate(109.095641, 50.219147)"><g><path d="M 3.8125 0 C 3.507812 0 3.144531 0.03125 2.71875 0.09375 C 2.300781 0.15625 1.910156 0.1875 1.546875 0.1875 C 1.191406 0.1875 0.894531 0.132812 0.65625 0.03125 C 0.425781 -0.0703125 0.3125 -0.273438 0.3125 -0.578125 C 0.3125 -0.804688 0.359375 -0.976562 0.453125 -1.09375 C 0.554688 -1.207031 0.679688 -1.347656 0.828125 -1.515625 C 0.972656 -1.691406 1.097656 -1.960938 1.203125 -2.328125 C 1.304688 -2.703125 1.359375 -3.25 1.359375 -3.96875 C 1.359375 -4.539062 1.359375 -5.210938 1.359375 -5.984375 C 1.359375 -6.753906 1.363281 -7.539062 1.375 -8.34375 C 1.382812 -9.144531 1.390625 -9.882812 1.390625 -10.5625 C 1.390625 -11.238281 1.390625 -11.785156 1.390625 -12.203125 C 1.390625 -12.628906 1.390625 -12.84375 1.390625 -12.84375 C 1.390625 -13.394531 1.304688 -13.773438 1.140625 -13.984375 C 0.972656 -14.191406 0.804688 -14.351562 0.640625 -14.46875 C 0.484375 -14.59375 0.40625 -14.789062 0.40625 -15.0625 C 0.40625 -15.363281 0.503906 -15.570312 0.703125 -15.6875 C 0.910156 -15.800781 1.203125 -15.898438 1.578125 -15.984375 C 1.960938 -16.066406 2.421875 -16.203125 2.953125 -16.390625 C 3.609375 -16.628906 4.0625 -16.847656 4.3125 -17.046875 C 4.5625 -17.242188 4.742188 -17.398438 4.859375 -17.515625 C 4.984375 -17.640625 5.179688 -17.703125 5.453125 -17.703125 C 5.796875 -17.703125 6.035156 -17.535156 6.171875 -17.203125 C 6.304688 -16.878906 6.375 -16.492188 6.375 -16.046875 L 6.375 -10.21875 C 6.4375 -10.082031 6.566406 -10.117188 6.765625 -10.328125 C 6.972656 -10.546875 7.257812 -10.820312 7.625 -11.15625 C 8 -11.5 8.453125 -11.804688 8.984375 -12.078125 C 9.523438 -12.359375 10.144531 -12.5 10.84375 -12.5 C 11.800781 -12.5 12.523438 -12.289062 13.015625 -11.875 C 13.515625 -11.46875 13.851562 -10.957031 14.03125 -10.34375 C 14.207031 -9.726562 14.296875 -9.101562 14.296875 -8.46875 L 14.296875 -3.96875 C 14.296875 -3.25 14.34375 -2.703125 14.4375 -2.328125 C 14.539062 -1.960938 14.664062 -1.691406 14.8125 -1.515625 C 14.957031 -1.347656 15.082031 -1.207031 15.1875 -1.09375 C 15.289062 -0.976562 15.34375 -0.804688 15.34375 -0.578125 C 15.34375 -0.273438 15.253906 -0.0703125 15.078125 0.03125 C 14.898438 0.132812 14.664062 0.1875 14.375 0.1875 C 14.09375 0.1875 13.757812 0.15625 13.375 0.09375 C 13 0.03125 12.632812 0 12.28125 0 C 11.957031 0 11.675781 0.015625 11.4375 0.046875 C 11.207031 0.078125 10.957031 0.113281 10.6875 0.15625 C 10.28125 0.195312 9.945312 0.101562 9.6875 -0.125 C 9.425781 -0.351562 9.296875 -0.671875 9.296875 -1.078125 L 9.296875 -6.125 C 9.296875 -7.113281 9.191406 -7.863281 8.984375 -8.375 C 8.785156 -8.882812 8.421875 -9.140625 7.890625 -9.140625 C 7.492188 -9.140625 7.144531 -8.976562 6.84375 -8.65625 C 6.550781 -8.34375 6.394531 -7.707031 6.375 -6.75 L 6.3125 -3.96875 C 6.289062 -3.226562 6.332031 -2.664062 6.4375 -2.28125 C 6.539062 -1.90625 6.660156 -1.640625 6.796875 -1.484375 C 6.941406 -1.335938 7.070312 -1.207031 7.1875 -1.09375 C 7.300781 -0.976562 7.359375 -0.804688 7.359375 -0.578125 C 7.359375 -0.273438 7.238281 -0.0703125 7 0.03125 C 6.769531 0.132812 6.476562 0.1875 6.125 0.1875 C 5.738281 0.1875 5.332031 0.15625 4.90625 0.09375 C 4.488281 0.03125 4.125 0 3.8125 0 Z M 3.8125 0 "/></g></g></g><g fill="#1bbc9b" fill-opacity="1"><g transform="translate(124.74018, 50.219147)"><g><path d="M 7.421875 0.1875 C 6.335938 0.1875 5.269531 -0.0234375 4.21875 -0.453125 C 3.175781 -0.890625 2.3125 -1.566406 1.625 -2.484375 C 0.945312 -3.410156 0.609375 -4.625 0.609375 -6.125 C 0.609375 -7.394531 0.882812 -8.507812 1.4375 -9.46875 C 2 -10.425781 2.769531 -11.171875 3.75 -11.703125 C 4.738281 -12.234375 5.878906 -12.5 7.171875 -12.5 C 8.441406 -12.5 9.476562 -12.34375 10.28125 -12.03125 C 11.082031 -11.726562 11.703125 -11.332031 12.140625 -10.84375 C 12.585938 -10.363281 12.890625 -9.875 13.046875 -9.375 C 13.210938 -8.875 13.296875 -8.4375 13.296875 -8.0625 C 13.296875 -7.039062 12.976562 -6.207031 12.34375 -5.5625 C 11.707031 -4.914062 10.894531 -4.441406 9.90625 -4.140625 C 8.925781 -3.847656 7.925781 -3.703125 6.90625 -3.703125 C 6.613281 -3.703125 6.398438 -3.597656 6.265625 -3.390625 C 6.128906 -3.179688 6.085938 -2.941406 6.140625 -2.671875 C 6.191406 -2.410156 6.351562 -2.175781 6.625 -1.96875 C 6.90625 -1.757812 7.304688 -1.65625 7.828125 -1.65625 C 8.566406 -1.65625 9.148438 -1.789062 9.578125 -2.0625 C 10.003906 -2.332031 10.347656 -2.640625 10.609375 -2.984375 C 10.867188 -3.335938 11.113281 -3.644531 11.34375 -3.90625 C 11.582031 -4.175781 11.894531 -4.3125 12.28125 -4.3125 C 12.632812 -4.3125 12.894531 -4.203125 13.0625 -3.984375 C 13.238281 -3.773438 13.328125 -3.535156 13.328125 -3.265625 C 13.328125 -2.566406 13.054688 -1.957031 12.515625 -1.4375 C 11.972656 -0.925781 11.25 -0.523438 10.34375 -0.234375 C 9.445312 0.046875 8.472656 0.1875 7.421875 0.1875 Z M 7.171875 -10.9375 C 6.742188 -10.9375 6.398438 -10.675781 6.140625 -10.15625 C 5.890625 -9.644531 5.765625 -8.957031 5.765625 -8.09375 C 5.765625 -7.238281 5.890625 -6.550781 6.140625 -6.03125 C 6.398438 -5.519531 6.742188 -5.265625 7.171875 -5.265625 C 7.609375 -5.265625 7.953125 -5.519531 8.203125 -6.03125 C 8.460938 -6.550781 8.59375 -7.238281 8.59375 -8.09375 C 8.59375 -8.957031 8.460938 -9.644531 8.203125 -10.15625 C 7.953125 -10.675781 7.609375 -10.9375 7.171875 -10.9375 Z M 7.171875 -10.9375 "/></g></g></g><g fill="#ffffff" fill-opacity="1"><g transform="translate(138.69291, 50.219147)"><g><path d="M 0.15625 -0.578125 C 0.15625 -0.828125 0.226562 -1.015625 0.375 -1.140625 C 0.53125 -1.265625 0.742188 -1.425781 1.015625 -1.625 C 1.285156 -1.832031 1.582031 -2.164062 1.90625 -2.625 C 2.09375 -2.882812 2.320312 -3.382812 2.59375 -4.125 C 2.875 -4.863281 3.175781 -5.722656 3.5 -6.703125 C 3.832031 -7.691406 4.164062 -8.707031 4.5 -9.75 C 4.84375 -10.800781 5.160156 -11.769531 5.453125 -12.65625 C 5.617188 -13.125 5.679688 -13.46875 5.640625 -13.6875 C 5.597656 -13.90625 5.507812 -14.066406 5.375 -14.171875 C 5.238281 -14.285156 5.113281 -14.390625 5 -14.484375 C 4.882812 -14.578125 4.828125 -14.726562 4.828125 -14.9375 C 4.828125 -15.226562 4.957031 -15.40625 5.21875 -15.46875 C 5.476562 -15.539062 5.769531 -15.578125 6.09375 -15.578125 C 6.488281 -15.578125 6.785156 -15.546875 6.984375 -15.484375 C 7.191406 -15.421875 7.5625 -15.390625 8.09375 -15.390625 C 8.695312 -15.390625 9.160156 -15.421875 9.484375 -15.484375 C 9.816406 -15.546875 10.132812 -15.578125 10.4375 -15.578125 C 10.664062 -15.578125 10.851562 -15.546875 11 -15.484375 C 11.15625 -15.421875 11.304688 -15.21875 11.453125 -14.875 C 11.640625 -14.445312 11.875 -13.773438 12.15625 -12.859375 C 12.445312 -11.941406 12.757812 -10.925781 13.09375 -9.8125 C 13.4375 -8.707031 13.78125 -7.613281 14.125 -6.53125 C 14.476562 -5.457031 14.804688 -4.519531 15.109375 -3.71875 C 15.421875 -2.925781 15.679688 -2.394531 15.890625 -2.125 C 16.242188 -1.695312 16.519531 -1.410156 16.71875 -1.265625 C 16.925781 -1.117188 17.03125 -0.890625 17.03125 -0.578125 C 17.03125 -0.273438 16.925781 -0.0703125 16.71875 0.03125 C 16.519531 0.132812 16.242188 0.1875 15.890625 0.1875 C 15.503906 0.1875 15.035156 0.15625 14.484375 0.09375 C 13.941406 0.03125 13.351562 0 12.71875 0 C 12.40625 0 12.03125 0.03125 11.59375 0.09375 C 11.15625 0.15625 10.726562 0.1875 10.3125 0.1875 C 9.945312 0.1875 9.632812 0.132812 9.375 0.03125 C 9.125 -0.0703125 9 -0.273438 9 -0.578125 C 9 -0.890625 9.0625 -1.113281 9.1875 -1.25 C 9.320312 -1.382812 9.453125 -1.570312 9.578125 -1.8125 C 9.703125 -2.0625 9.765625 -2.484375 9.765625 -3.078125 C 9.765625 -3.546875 9.648438 -3.914062 9.421875 -4.1875 C 9.191406 -4.457031 8.90625 -4.59375 8.5625 -4.59375 L 5.734375 -4.59375 C 5.378906 -4.59375 5.085938 -4.457031 4.859375 -4.1875 C 4.640625 -3.914062 4.53125 -3.546875 4.53125 -3.078125 C 4.53125 -2.484375 4.609375 -2.050781 4.765625 -1.78125 C 4.929688 -1.519531 5.097656 -1.316406 5.265625 -1.171875 C 5.429688 -1.023438 5.515625 -0.828125 5.515625 -0.578125 C 5.515625 -0.296875 5.398438 -0.0976562 5.171875 0.015625 C 4.941406 0.128906 4.6875 0.1875 4.40625 0.1875 C 4.050781 0.1875 3.773438 0.15625 3.578125 0.09375 C 3.390625 0.03125 3.140625 0 2.828125 0 C 2.523438 0 2.273438 0.03125 2.078125 0.09375 C 1.878906 0.15625 1.609375 0.1875 1.265625 0.1875 C 0.972656 0.1875 0.710938 0.128906 0.484375 0.015625 C 0.265625 -0.0976562 0.15625 -0.296875 0.15625 -0.578125 Z M 5.390625 -6.8125 C 5.222656 -6.332031 5.375 -6.09375 5.84375 -6.09375 L 8.34375 -6.09375 C 8.8125 -6.09375 8.96875 -6.332031 8.8125 -6.8125 C 8.539062 -7.582031 8.28125 -8.394531 8.03125 -9.25 C 7.789062 -10.101562 7.585938 -10.816406 7.421875 -11.390625 C 7.335938 -11.660156 7.242188 -11.796875 7.140625 -11.796875 C 7.054688 -11.796875 6.96875 -11.671875 6.875 -11.421875 C 6.664062 -10.847656 6.4375 -10.128906 6.1875 -9.265625 C 5.945312 -8.398438 5.679688 -7.582031 5.390625 -6.8125 Z M 5.390625 -6.8125 "/></g></g></g><g fill="#ffffff" fill-opacity="1"><g transform="translate(155.877266, 50.219147)"><g><path d="M 0.3125 -9.859375 C 0.3125 -10.160156 0.410156 -10.367188 0.609375 -10.484375 C 0.816406 -10.597656 1.109375 -10.695312 1.484375 -10.78125 C 1.867188 -10.863281 2.328125 -10.992188 2.859375 -11.171875 C 3.515625 -11.421875 3.96875 -11.644531 4.21875 -11.84375 C 4.46875 -12.039062 4.648438 -12.195312 4.765625 -12.3125 C 4.890625 -12.4375 5.085938 -12.5 5.359375 -12.5 C 5.722656 -12.5 5.96875 -12.332031 6.09375 -12 C 6.21875 -11.675781 6.28125 -11.289062 6.28125 -10.84375 C 6.300781 -10.207031 6.316406 -9.6875 6.328125 -9.28125 C 6.335938 -8.882812 6.34375 -8.367188 6.34375 -7.734375 L 6.34375 -6.21875 C 6.34375 -4.925781 6.453125 -4.046875 6.671875 -3.578125 C 6.898438 -3.117188 7.253906 -2.890625 7.734375 -2.890625 C 8.203125 -2.890625 8.535156 -3.117188 8.734375 -3.578125 C 8.941406 -4.046875 9.046875 -4.9375 9.046875 -6.25 L 9.046875 -7.734375 C 9.046875 -8.242188 8.957031 -8.597656 8.78125 -8.796875 C 8.613281 -9.003906 8.441406 -9.171875 8.265625 -9.296875 C 8.085938 -9.421875 8 -9.609375 8 -9.859375 C 8 -10.160156 8.101562 -10.367188 8.3125 -10.484375 C 8.519531 -10.597656 8.8125 -10.695312 9.1875 -10.78125 C 9.570312 -10.863281 10.03125 -10.992188 10.5625 -11.171875 C 11.21875 -11.421875 11.664062 -11.644531 11.90625 -11.84375 C 12.15625 -12.039062 12.34375 -12.195312 12.46875 -12.3125 C 12.59375 -12.4375 12.789062 -12.5 13.0625 -12.5 C 13.425781 -12.5 13.671875 -12.332031 13.796875 -12 C 13.921875 -11.675781 13.984375 -11.289062 13.984375 -10.84375 L 14.015625 -8.34375 C 14.015625 -7.414062 14.019531 -6.675781 14.03125 -6.125 C 14.039062 -5.570312 14.046875 -5.128906 14.046875 -4.796875 C 14.046875 -4.472656 14.046875 -4.1875 14.046875 -3.9375 C 14.046875 -3.21875 14.09375 -2.671875 14.1875 -2.296875 C 14.289062 -1.929688 14.414062 -1.660156 14.5625 -1.484375 C 14.707031 -1.316406 14.832031 -1.175781 14.9375 -1.0625 C 15.039062 -0.945312 15.09375 -0.773438 15.09375 -0.546875 C 15.09375 -0.242188 15.003906 -0.0390625 14.828125 0.0625 C 14.648438 0.164062 14.421875 0.21875 14.140625 0.21875 C 13.847656 0.21875 13.507812 0.1875 13.125 0.125 C 12.75 0.0625 12.390625 0.03125 12.046875 0.03125 C 11.710938 0.03125 11.425781 0.046875 11.1875 0.078125 C 10.957031 0.109375 10.707031 0.144531 10.4375 0.1875 C 10.050781 0.226562 9.734375 0.15625 9.484375 -0.03125 C 9.234375 -0.21875 9.085938 -0.484375 9.046875 -0.828125 C 8.972656 -1.441406 8.882812 -1.75 8.78125 -1.75 C 8.675781 -1.75 8.414062 -1.535156 8 -1.109375 C 7.675781 -0.753906 7.203125 -0.445312 6.578125 -0.1875 C 5.953125 0.0625 5.359375 0.1875 4.796875 0.1875 C 3.859375 0.1875 3.132812 -0.015625 2.625 -0.421875 C 2.125 -0.835938 1.785156 -1.351562 1.609375 -1.96875 C 1.441406 -2.582031 1.359375 -3.207031 1.359375 -3.84375 L 1.359375 -7.609375 C 1.359375 -8.160156 1.269531 -8.539062 1.09375 -8.75 C 0.914062 -8.96875 0.738281 -9.140625 0.5625 -9.265625 C 0.394531 -9.390625 0.3125 -9.585938 0.3125 -9.859375 Z M 0.3125 -9.859375 "/></g></g></g><g fill="#ffffff" fill-opacity="1"><g transform="translate(171.275432, 50.219147)"><g><path d="M 0.15625 -0.546875 C 0.15625 -0.859375 0.289062 -1.09375 0.5625 -1.25 C 0.84375 -1.40625 1.191406 -1.59375 1.609375 -1.8125 C 2.035156 -2.039062 2.460938 -2.410156 2.890625 -2.921875 C 3.078125 -3.148438 3.34375 -3.546875 3.6875 -4.109375 C 4.039062 -4.671875 4.375 -5.210938 4.6875 -5.734375 C 4.78125 -5.910156 4.78125 -6.09375 4.6875 -6.28125 C 4.5 -6.59375 4.300781 -6.914062 4.09375 -7.25 C 3.882812 -7.59375 3.691406 -7.882812 3.515625 -8.125 C 3.035156 -8.820312 2.597656 -9.347656 2.203125 -9.703125 C 1.816406 -10.066406 1.484375 -10.347656 1.203125 -10.546875 C 0.929688 -10.742188 0.71875 -10.914062 0.5625 -11.0625 C 0.414062 -11.21875 0.34375 -11.453125 0.34375 -11.765625 C 0.34375 -12.066406 0.457031 -12.269531 0.6875 -12.375 C 0.925781 -12.476562 1.226562 -12.53125 1.59375 -12.53125 C 2.007812 -12.53125 2.457031 -12.5 2.9375 -12.4375 C 3.425781 -12.375 3.894531 -12.34375 4.34375 -12.34375 C 4.8125 -12.34375 5.28125 -12.375 5.75 -12.4375 C 6.226562 -12.5 6.660156 -12.53125 7.046875 -12.53125 C 7.398438 -12.53125 7.679688 -12.476562 7.890625 -12.375 C 8.109375 -12.269531 8.21875 -12.066406 8.21875 -11.765625 C 8.21875 -11.472656 8.175781 -11.226562 8.09375 -11.03125 C 8.007812 -10.84375 7.960938 -10.632812 7.953125 -10.40625 C 7.953125 -10.1875 8.039062 -9.867188 8.21875 -9.453125 C 8.320312 -9.242188 8.445312 -9.023438 8.59375 -8.796875 C 8.738281 -8.578125 8.875 -8.34375 9 -8.09375 C 9.09375 -7.894531 9.203125 -7.894531 9.328125 -8.09375 C 9.472656 -8.320312 9.597656 -8.539062 9.703125 -8.75 C 9.804688 -8.96875 9.910156 -9.179688 10.015625 -9.390625 C 10.234375 -9.828125 10.316406 -10.15625 10.265625 -10.375 C 10.210938 -10.601562 10.125 -10.804688 10 -10.984375 C 9.882812 -11.171875 9.828125 -11.410156 9.828125 -11.703125 C 9.828125 -12.035156 9.914062 -12.25 10.09375 -12.34375 C 10.28125 -12.445312 10.507812 -12.5 10.78125 -12.5 C 11.0625 -12.5 11.363281 -12.46875 11.6875 -12.40625 C 12.007812 -12.34375 12.269531 -12.3125 12.46875 -12.3125 C 12.695312 -12.3125 12.953125 -12.34375 13.234375 -12.40625 C 13.523438 -12.46875 13.785156 -12.5 14.015625 -12.5 C 14.234375 -12.5 14.410156 -12.445312 14.546875 -12.34375 C 14.679688 -12.25 14.75 -12.054688 14.75 -11.765625 C 14.75 -11.472656 14.609375 -11.242188 14.328125 -11.078125 C 14.054688 -10.921875 13.710938 -10.726562 13.296875 -10.5 C 12.890625 -10.269531 12.460938 -9.898438 12.015625 -9.390625 C 11.828125 -9.179688 11.554688 -8.800781 11.203125 -8.25 C 10.859375 -7.695312 10.53125 -7.164062 10.21875 -6.65625 C 10.101562 -6.445312 10.113281 -6.257812 10.25 -6.09375 C 10.476562 -5.769531 10.695312 -5.445312 10.90625 -5.125 C 11.125 -4.8125 11.347656 -4.507812 11.578125 -4.21875 C 12.046875 -3.519531 12.472656 -2.988281 12.859375 -2.625 C 13.253906 -2.269531 13.59375 -1.992188 13.875 -1.796875 C 14.15625 -1.609375 14.367188 -1.4375 14.515625 -1.28125 C 14.671875 -1.125 14.75 -0.890625 14.75 -0.578125 C 14.75 -0.273438 14.609375 -0.0703125 14.328125 0.03125 C 14.054688 0.132812 13.710938 0.1875 13.296875 0.1875 C 12.847656 0.1875 12.382812 0.15625 11.90625 0.09375 C 11.4375 0.03125 11.050781 0 10.75 0 C 10.238281 0 9.738281 0.03125 9.25 0.09375 C 8.769531 0.15625 8.34375 0.1875 7.96875 0.1875 C 7.644531 0.1875 7.378906 0.132812 7.171875 0.03125 C 6.972656 -0.0703125 6.875 -0.273438 6.875 -0.578125 C 6.875 -0.890625 6.914062 -1.140625 7 -1.328125 C 7.09375 -1.523438 7.148438 -1.738281 7.171875 -1.96875 C 7.191406 -2.195312 7.09375 -2.503906 6.875 -2.890625 C 6.769531 -3.097656 6.644531 -3.328125 6.5 -3.578125 C 6.351562 -3.835938 6.195312 -4.101562 6.03125 -4.375 C 5.90625 -4.582031 5.796875 -4.582031 5.703125 -4.375 C 5.554688 -4.101562 5.410156 -3.847656 5.265625 -3.609375 C 5.117188 -3.378906 4.992188 -3.148438 4.890625 -2.921875 C 4.691406 -2.492188 4.613281 -2.164062 4.65625 -1.9375 C 4.695312 -1.707031 4.773438 -1.5 4.890625 -1.3125 C 5.015625 -1.132812 5.078125 -0.898438 5.078125 -0.609375 C 5.078125 -0.285156 4.984375 -0.0703125 4.796875 0.03125 C 4.617188 0.132812 4.394531 0.1875 4.125 0.1875 C 3.851562 0.1875 3.554688 0.15625 3.234375 0.09375 C 2.921875 0.03125 2.65625 0 2.4375 0 C 2.207031 0 1.945312 0.03125 1.65625 0.09375 C 1.375 0.15625 1.117188 0.1875 0.890625 0.1875 C 0.679688 0.1875 0.503906 0.132812 0.359375 0.03125 C 0.222656 -0.0703125 0.15625 -0.265625 0.15625 -0.546875 Z M 0.15625 -0.546875 "/></g></g></g></svg>